<svg width="800" height="600" viewBox="0 0 800 600" xmlns="http://www.w3.org/2000/svg">
    <defs>
        <linearGradient id="bg" x1="0%" y1="0%" x2="100%" y2="100%">
            <stop offset="0%" stop-color="#FFF7ED"/>
            <stop offset="100%" stop-color="#FFEDD5"/>
        </linearGradient>
        <linearGradient id="circle" x1="0%" y1="0%" x2="100%" y2="100%">
            <stop offset="0%" stop-color="#F97316"/>
            <stop offset="100%" stop-color="#EA580C"/>
        </linearGradient>
    </defs>
    <rect width="800" height="600" fill="url(#bg)"/>
    
    <!-- Abstract Shapes -->
    <circle cx="100" cy="100" r="150" fill="#FDBA74" opacity="0.2"/>
    <circle cx="700" cy="500" r="200" fill="#FDBA74" opacity="0.2"/>
    
    <!-- Central Icon Container -->
    <circle cx="400" cy="250" r="120" fill="white" filter="drop-shadow(0 10px 20px rgba(0,0,0,0.1))"/>
    
    <!-- Java Cup Icon -->
    <path d="M340 280 C340 320 370 350 410 350 C440 350 465 330 475 300 C485 300 495 290 495 270 C495 250 485 240 475 240 M475 250 C480 250 485 255 485 270 C485 285 480 290 475 290" stroke="#EA580C" stroke-width="15" fill="none" stroke-linecap="round"/>
    <path d="M360 280 L475 280" stroke="#EA580C" stroke-width="15" stroke-linecap="round"/>
    
    <!-- Steam -->
    <path d="M390 200 Q400 180 390 160" stroke="#F97316" stroke-width="8" stroke-linecap="round" opacity="0.8"/>
    <path d="M420 190 Q430 170 420 150" stroke="#F97316" stroke-width="8" stroke-linecap="round" opacity="0.8"/>
    
    <!-- Text -->
    <text x="400" y="450" font-family="Arial, sans-serif" font-size="48" font-weight="bold" fill="#9A3412" text-anchor="middle">Java Full Stack</text>
    <text x="400" y="500" font-family="Arial, sans-serif" font-size="24" fill="#C2410C" text-anchor="middle">Development Course</text>
</svg>
