<svg width="800" height="600" viewBox="0 0 800 600" xmlns="http://www.w3.org/2000/svg">
    <defs>
        <linearGradient id="bg" x1="0%" y1="0%" x2="100%" y2="100%">
            <stop offset="0%" stop-color="#FDF2F8"/>
            <stop offset="100%" stop-color="#FCE7F3"/>
        </linearGradient>
    </defs>
    <rect width="800" height="600" fill="url(#bg)"/>
    
    <!-- Abstract Shapes -->
    <circle cx="100" cy="100" r="150" fill="#F472B6" opacity="0.2"/>
    <circle cx="700" cy="500" r="200" fill="#F472B6" opacity="0.2"/>
    
    <!-- Central Icon Container -->
    <circle cx="400" cy="250" r="120" fill="white" filter="drop-shadow(0 10px 20px rgba(0,0,0,0.1))"/>
    
    <!-- UI/UX Icon (Palette & Brush) -->
    <!-- Palette -->
    <path d="M350 200 C320 200 300 230 300 270 C300 320 340 350 390 350 C410 350 420 340 420 330 C420 320 410 310 400 310 C390 310 380 315 380 325 C380 330 375 330 375 325 C375 310 400 290 430 290 C460 290 480 260 480 230 C480 190 430 200 350 200 Z" fill="#DB2777"/>
    <!-- Color Spots -->
    <circle cx="340" cy="240" r="10" fill="#F472B6"/>
    <circle cx="370" cy="220" r="10" fill="#F472B6"/>
    <circle cx="410" cy="220" r="10" fill="#F472B6"/>
    <circle cx="440" cy="240" r="10" fill="#F472B6"/>
    
    <!-- Text -->
    <text x="400" y="450" font-family="Arial, sans-serif" font-size="48" font-weight="bold" fill="#9D174D" text-anchor="middle">UI/UX &amp; Testing</text>
    <text x="400" y="500" font-family="Arial, sans-serif" font-size="24" fill="#BE185D" text-anchor="middle">Design &amp; QA</text>
</svg>
